<svg xmlns="http://www.w3.org/2000/svg" viewBox="0 0 38.8 35"><defs><style>.cls-1{fill:#fff;}</style></defs><title>Asset 1</title><g id="Layer_2" data-name="Layer 2"><g id="Layer_1-2" data-name="Layer 1"><path class="cls-1" d="M29,2a7.6,7.6,0,0,1,6.78,3.82c1.93,3.94,1,8.5-2.63,13.55-3,4.14-7.37,8.42-13.76,13.42C13.09,27.84,8.7,23.56,5.64,19.37,2,14.33,1.08,9.77,3,5.82A7.48,7.48,0,0,1,9.79,2a9.47,9.47,0,0,1,2.61.38,10,10,0,0,1,5.37,3.8l1.63,2.3L21,6.19A10,10,0,0,1,26.4,2.38,9.47,9.47,0,0,1,29,2m0-2a11.25,11.25,0,0,0-3.17.46A12,12,0,0,0,19.4,5,12,12,0,0,0,13,.46,11.6,11.6,0,0,0,9.79,0,9.51,9.51,0,0,0,1.21,4.94C-1.07,9.61-.12,14.86,4,20.54c3.25,4.45,7.9,9,14.64,14.2a1.17,1.17,0,0,0,.74.26,1.2,1.2,0,0,0,.75-.26c6.73-5.22,11.39-9.7,14.64-14.2,4.13-5.68,5.08-10.93,2.8-15.6A9.55,9.55,0,0,0,29,0Z"/></g></g></svg>